<?xml version="1.0" encoding="UTF-8"?>
<svg xmlns="http://www.w3.org/2000/svg" id="Layer_1" data-name="Layer 1" viewBox="0 0 100 100">
  <defs>
    <style>
      .cls-1 {
        fill: #fff;
      }

      .cls-2 {
        fill: #1c2d46;
      }
    </style>
  </defs>
  <path class="cls-2" d="m50,97.42c-8.62,0-16.04-3.04-22.04-9.04-5.91-6.05-8.91-13.37-8.91-21.76s3-15.85,8.91-21.76c5.86-6,13.27-9.04,22.04-9.04,6.27,0,12.58,2.07,15.57,4.12l1.03.79v-24.28c0-7.63,6.21-13.84,13.84-13.84.28,0,.5.22.5.5v63.11c0,9.65-3.1,17.35-9.2,22.89-6.09,5.53-13.41,8.33-21.74,8.33Zm-.92-47.85c-9.77,0-17.15,7.56-17.15,17.57s7.37,17.58,17.15,17.58,17.15-7.39,17.15-17.58-7.37-17.57-17.15-17.57Z"></path>
  <path class="cls-1" d="m80.44,3.09v63.11c0,9.59-3.06,17.1-9.04,22.52-5.98,5.42-13.21,8.2-21.41,8.2s-15.71-2.92-21.68-8.9c-5.84-5.98-8.76-13.07-8.76-21.41s2.92-15.57,8.76-21.41c5.84-5.98,13.07-8.9,21.68-8.9,6.53,0,12.65,2.22,15.29,4.03l1.81,1.39v-25.3c0-7.37,5.97-13.34,13.34-13.34m-31.37,82.13c10.18,0,17.65-7.75,17.65-18.08s-7.75-18.07-17.65-18.07-17.65,7.6-17.65,18.07,7.75,18.08,17.65,18.08M80.44,2.09c-7.91,0-14.34,6.43-14.34,14.34v23.27l-.2-.15s-.03-.02-.04-.03c-3.05-2.09-9.48-4.21-15.85-4.21-8.9,0-16.44,3.09-22.4,9.2-6,6-9.04,13.44-9.04,22.11s3.04,15.96,9.04,22.11c6.1,6.11,13.64,9.2,22.4,9.2s15.89-2.85,22.08-8.46c6.21-5.64,9.36-13.46,9.36-23.26V3.09c0-.55-.45-1-1-1h0Zm-31.37,82.13c-9.49,0-16.65-7.34-16.65-17.08s7.16-17.07,16.65-17.07,16.65,7.34,16.65,17.07-7,17.08-16.65,17.08h0Z"></path>
</svg>
