<svg width="152" height="66" viewBox="0 0 152 66" fill="none" xmlns="http://www.w3.org/2000/svg">
<path d="M36 66V37.4553C36 32.7857 40.4774 29 46 29V65.9868H36V66Z" fill="#1C2D46"/>
<path d="M59.4155 66H51V46.2616C51 40.4235 52.5393 36.127 55.5295 33.2964C58.6081 30.4658 62.2796 29 66.4558 29C70.6321 29 74.3162 30.4532 77.3822 33.2964C80.4607 36.127 82 40.512 82 46.2616V66H74.026V46.2616C74.026 40.1708 71.1241 36.9105 66.6703 36.9105C62.2165 36.9105 59.4029 40.0823 59.4029 46.2616V66H59.4155Z" fill="#1C2D46"/>
<path d="M143.895 32.4655L143.672 14.5C143.672 10.0221 147.52 6 152 6V47.334C152 53.1602 150.144 57.7246 146.506 61.015C142.868 64.3053 138.487 66 133.5 66C128.513 66 123.959 64.2311 120.321 60.5944C116.77 56.9577 115 52.653 115 47.5938C115 42.5345 116.77 38.1309 120.321 34.5931C123.873 30.9564 128.266 29.1875 133.5 29.1875C137.472 29.1875 141.185 30.5358 142.793 31.6367L143.895 32.4779V32.4655ZM132.943 58.8874C139.13 58.8874 143.672 54.1869 143.672 47.903C143.672 41.6191 138.97 36.9186 132.943 36.9186C126.917 36.9186 122.214 41.5326 122.214 47.903C122.214 54.2734 126.917 58.8874 132.943 58.8874Z" fill="#4170EF"/>
<g clip-path="url(#clip0_812_131)">
<path d="M36.4984 11.6271L36.6503 6.91554C36.6503 6.91554 36.8022 2.20394 41.5138 2.35583C46.2254 2.50771 46.0735 7.21931 46.0735 7.21931L45.871 13.5014C45.871 13.5014 45.7191 18.213 41.0075 18.0612C40.1241 18.0327 39.2735 17.6916 39.2735 17.6916L39.3603 15.0606C39.3603 15.0606 39.8239 15.6648 41.0834 15.7054C41.0834 15.7054 43.4392 15.7813 43.5152 13.4255L43.7177 7.14337C43.7177 7.14337 43.7936 4.78757 41.4378 4.71162C39.082 4.63568 39.0061 6.99148 39.0061 6.99148L38.9117 9.91974C38.9117 9.91974 37.5823 10.0078 36.4889 11.9216L36.4984 11.6271Z" fill="#1C2D46"/>
<path d="M45.707 16.7013L45.5551 21.4129C45.5551 21.4129 45.4032 26.1245 40.6916 25.9726C35.98 25.8207 36.1319 21.1091 36.1319 21.1091L36.3344 14.827C36.3344 14.827 36.4863 10.1154 41.1979 10.2673C42.0813 10.2958 42.9319 10.6368 42.9319 10.6368L42.8451 13.2686C42.8451 13.2686 42.3811 12.6641 41.1215 12.6235C41.1215 12.6235 38.7657 12.5475 38.6898 14.9033L38.4873 21.1855C38.4873 21.1855 38.4114 23.5413 40.7672 23.6172C43.123 23.6931 43.1989 21.3373 43.1989 21.3373L43.2933 18.4091C43.2933 18.4091 44.6226 18.3211 45.7161 16.4072L45.707 16.7013Z" fill="#235AED"/>
</g>
<path d="M0.00869263 55V6C7.6094 7.6 9.84173 11.3333 10.0078 13V51.5C9.60781 55.9 13.1745 57 15.0078 57H31.0078V66H12.0087C2.00869 65.6 -0.157974 58.5 0.00869263 55Z" fill="#1C2D46"/>
<path d="M87 66V15.1202C87 10.0835 90.5819 6 95 6V65.9858H87V66Z" fill="#1C2D46"/>
<path d="M110.18 38.759L104.21 44.7296L98.9023 50.0369L93.168 44.3025L97.1484 40.3221L108.758 28.7126C113.08 33.5654 111.507 37.4322 110.18 38.759Z" fill="#1C2D46"/>
<path d="M116 66H107L96 48.5L103 45L116 66Z" fill="#1C2D46"/>
<rect x="89" y="40" width="10" height="10" fill="#1C2D46"/>
<defs>
<clipPath id="clip0_812_131">
<rect width="20" height="20" fill="white" transform="translate(27 13.6792) rotate(-43.1537)"/>
</clipPath>
</defs>
</svg>
